<svg width="429" height="32" viewBox="0 0 429 32" fill="none" xmlns="http://www.w3.org/2000/svg">
<path d="M4.464 12.68H11.976V9.2H4.464V12.68ZM4.464 19.256H11.736V15.992H4.464V19.256ZM1.776 9.2V26H5.664V9.2H1.776ZM16.7631 22.544C16.7631 22.272 16.8271 22.048 16.9551 21.872C17.0831 21.68 17.2751 21.536 17.5311 21.44C17.7871 21.344 18.1311 21.296 18.5631 21.296C19.1231 21.296 19.6511 21.376 20.1471 21.536C20.6591 21.68 21.1071 21.896 21.4911 22.184V20.576C21.2991 20.368 21.0111 20.168 20.6271 19.976C20.2431 19.784 19.7791 19.624 19.2351 19.496C18.7071 19.368 18.1071 19.304 17.4351 19.304C16.0591 19.304 14.9951 19.616 14.2431 20.24C13.4911 20.848 13.1151 21.68 13.1151 22.736C13.1151 23.488 13.2911 24.128 13.6431 24.656C14.0111 25.184 14.4911 25.584 15.0831 25.856C15.6911 26.112 16.3471 26.24 17.0511 26.24C17.7551 26.24 18.4111 26.12 19.0191 25.88C19.6271 25.624 20.1231 25.256 20.5071 24.776C20.8911 24.28 21.0831 23.68 21.0831 22.976L20.6991 21.536C20.6991 22.048 20.5871 22.48 20.3631 22.832C20.1391 23.184 19.8511 23.448 19.4991 23.624C19.1471 23.8 18.7631 23.888 18.3471 23.888C18.0591 23.888 17.7951 23.84 17.5551 23.744C17.3151 23.632 17.1231 23.48 16.9791 23.288C16.8351 23.08 16.7631 22.832 16.7631 22.544ZM15.1551 18.344C15.3151 18.248 15.5711 18.128 15.9231 17.984C16.2751 17.824 16.6831 17.688 17.1471 17.576C17.6271 17.464 18.1151 17.408 18.6111 17.408C18.9471 17.408 19.2431 17.44 19.4991 17.504C19.7711 17.568 19.9951 17.672 20.1711 17.816C20.3471 17.96 20.4751 18.136 20.5551 18.344C20.6511 18.536 20.6991 18.768 20.6991 19.04V26H24.1791V18.224C24.1791 17.456 23.9551 16.808 23.5071 16.28C23.0591 15.752 22.4511 15.352 21.6831 15.08C20.9151 14.792 20.0431 14.648 19.0671 14.648C18.0271 14.648 17.0671 14.784 16.1871 15.056C15.3071 15.328 14.5551 15.616 13.9311 15.92L15.1551 18.344ZM34.0686 19.28V26H37.8366V18.896C37.8366 17.568 37.5246 16.536 36.9006 15.8C36.2766 15.064 35.2766 14.696 33.9006 14.696C33.0846 14.696 32.3966 14.864 31.8366 15.2C31.2926 15.536 30.8606 16.008 30.5406 16.616V14.96H26.8926V26H30.5406V19.28C30.5406 18.848 30.6206 18.48 30.7806 18.176C30.9406 17.872 31.1646 17.64 31.4526 17.48C31.7406 17.32 32.0766 17.24 32.4606 17.24C33.0366 17.24 33.4446 17.416 33.6846 17.768C33.9406 18.12 34.0686 18.624 34.0686 19.28ZM39.4013 14.96V17.96H46.7933V14.96H39.4013ZM41.3453 11.12V26H44.8253V11.12H41.3453ZM51.1459 22.544C51.1459 22.272 51.2099 22.048 51.3379 21.872C51.4659 21.68 51.6579 21.536 51.9139 21.44C52.1699 21.344 52.5139 21.296 52.9459 21.296C53.5059 21.296 54.0339 21.376 54.5299 21.536C55.0419 21.68 55.4899 21.896 55.8739 22.184V20.576C55.6819 20.368 55.3939 20.168 55.0099 19.976C54.6259 19.784 54.1619 19.624 53.6179 19.496C53.0899 19.368 52.4899 19.304 51.8179 19.304C50.4419 19.304 49.3779 19.616 48.6259 20.24C47.8739 20.848 47.4979 21.68 47.4979 22.736C47.4979 23.488 47.6739 24.128 48.0259 24.656C48.3939 25.184 48.8739 25.584 49.4659 25.856C50.0739 26.112 50.7299 26.24 51.4339 26.24C52.1379 26.24 52.7939 26.12 53.4019 25.88C54.0099 25.624 54.5059 25.256 54.8899 24.776C55.2739 24.28 55.4659 23.68 55.4659 22.976L55.0819 21.536C55.0819 22.048 54.9699 22.48 54.7459 22.832C54.5219 23.184 54.2339 23.448 53.8819 23.624C53.5299 23.8 53.1459 23.888 52.7299 23.888C52.4419 23.888 52.1779 23.84 51.9379 23.744C51.6979 23.632 51.5059 23.48 51.3619 23.288C51.2179 23.08 51.1459 22.832 51.1459 22.544ZM49.5379 18.344C49.6979 18.248 49.9539 18.128 50.3059 17.984C50.6579 17.824 51.0659 17.688 51.5299 17.576C52.0099 17.464 52.4979 17.408 52.9939 17.408C53.3299 17.408 53.6259 17.44 53.8819 17.504C54.1539 17.568 54.3779 17.672 54.5539 17.816C54.7299 17.96 54.8579 18.136 54.9379 18.344C55.0339 18.536 55.0819 18.768 55.0819 19.04V26H58.5619V18.224C58.5619 17.456 58.3379 16.808 57.8899 16.28C57.4419 15.752 56.8339 15.352 56.0659 15.08C55.2979 14.792 54.4259 14.648 53.4499 14.648C52.4099 14.648 51.4499 14.784 50.5699 15.056C49.6899 15.328 48.9379 15.616 48.3139 15.92L49.5379 18.344ZM61.8754 21.992L60.3634 24.392C60.8594 24.776 61.3954 25.128 61.9714 25.448C62.5474 25.752 63.1714 25.992 63.8434 26.168C64.5314 26.36 65.2754 26.456 66.0754 26.456C67.3874 26.456 68.4034 26.16 69.1234 25.568C69.8594 24.96 70.2274 24.064 70.2274 22.88C70.2274 22.192 70.0754 21.64 69.7714 21.224C69.4834 20.808 69.0914 20.464 68.5954 20.192C68.1154 19.92 67.5874 19.68 67.0114 19.472C66.4674 19.264 66.0034 19.096 65.6194 18.968C65.2514 18.824 64.9634 18.672 64.7554 18.512C64.5634 18.352 64.4674 18.152 64.4674 17.912C64.4674 17.704 64.5474 17.536 64.7074 17.408C64.8834 17.28 65.1394 17.216 65.4754 17.216C65.9714 17.216 66.5154 17.36 67.1074 17.648C67.6994 17.92 68.2274 18.272 68.6914 18.704L69.9874 16.352C69.5554 16.032 69.0914 15.752 68.5954 15.512C68.1154 15.272 67.5954 15.08 67.0354 14.936C66.4914 14.792 65.8994 14.72 65.2594 14.72C64.4594 14.72 63.7474 14.84 63.1234 15.08C62.5154 15.32 62.0274 15.672 61.6594 16.136C61.3074 16.6 61.1314 17.168 61.1314 17.84C61.1314 18.544 61.2834 19.12 61.5874 19.568C61.8914 20.016 62.2754 20.376 62.7394 20.648C63.2194 20.904 63.7234 21.128 64.2514 21.32C64.8434 21.496 65.3074 21.664 65.6434 21.824C65.9954 21.984 66.2434 22.152 66.3874 22.328C66.5314 22.488 66.6034 22.688 66.6034 22.928C66.6034 23.184 66.5154 23.392 66.3394 23.552C66.1634 23.712 65.8914 23.792 65.5234 23.792C65.2674 23.792 64.9634 23.744 64.6114 23.648C64.2594 23.536 63.8514 23.352 63.3874 23.096C62.9394 22.824 62.4354 22.456 61.8754 21.992ZM70.9247 14.96V17.96H78.3167V14.96H70.9247ZM72.8687 11.12V26H76.3487V11.12H72.8687ZM79.6453 10.808C79.6453 11.384 79.8533 11.856 80.2693 12.224C80.6853 12.592 81.1813 12.776 81.7573 12.776C82.3493 12.776 82.8453 12.592 83.2453 12.224C83.6613 11.856 83.8693 11.384 83.8693 10.808C83.8693 10.232 83.6613 9.768 83.2453 9.416C82.8453 9.048 82.3493 8.864 81.7573 8.864C81.1813 8.864 80.6853 9.048 80.2693 9.416C79.8533 9.768 79.6453 10.232 79.6453 10.808ZM80.0053 14.96V26H83.5093V14.96H80.0053ZM89.5421 20.48C89.5421 19.936 89.6701 19.448 89.9261 19.016C90.1821 18.584 90.5341 18.24 90.9821 17.984C91.4461 17.728 91.9421 17.6 92.4701 17.6C92.8701 17.6 93.2781 17.664 93.6941 17.792C94.1101 17.92 94.4941 18.104 94.8461 18.344C95.2141 18.584 95.5101 18.88 95.7341 19.232V15.68C95.3501 15.408 94.8701 15.184 94.2941 15.008C93.7181 14.816 93.0141 14.72 92.1821 14.72C90.9661 14.72 89.8701 14.96 88.8941 15.44C87.9341 15.92 87.1741 16.592 86.6141 17.456C86.0701 18.304 85.7981 19.312 85.7981 20.48C85.7981 21.632 86.0701 22.64 86.6141 23.504C87.1741 24.368 87.9341 25.04 88.8941 25.52C89.8701 26 90.9661 26.24 92.1821 26.24C93.0141 26.24 93.7181 26.152 94.2941 25.976C94.8701 25.784 95.3501 25.536 95.7341 25.232V21.704C95.5101 22.056 95.2221 22.352 94.8701 22.592C94.5341 22.832 94.1581 23.024 93.7421 23.168C93.3421 23.296 92.9181 23.36 92.4701 23.36C91.9421 23.36 91.4461 23.24 90.9821 23C90.5341 22.76 90.1821 22.432 89.9261 22.016C89.6701 21.584 89.5421 21.072 89.5421 20.48ZM108.597 12.68H116.109V9.2H108.597V12.68ZM108.597 19.256H115.869V15.992H108.597V19.256ZM105.909 9.2V26H109.797V9.2H105.909ZM122.138 21.68V14.96H118.346V22.064C118.346 23.376 118.658 24.408 119.282 25.16C119.922 25.896 120.93 26.264 122.306 26.264C123.122 26.264 123.802 26.096 124.346 25.76C124.89 25.408 125.33 24.936 125.666 24.344V26H129.29V14.96H125.666V21.68C125.666 22.112 125.586 22.48 125.426 22.784C125.266 23.088 125.042 23.32 124.754 23.48C124.482 23.64 124.146 23.72 123.746 23.72C123.154 23.72 122.738 23.544 122.498 23.192C122.258 22.824 122.138 22.32 122.138 21.68ZM136.878 18.248L131.094 26H142.134V22.712H137.382L142.902 14.96H132.102V18.248H136.878ZM150.144 18.248L144.36 26H155.4V22.712H150.648L156.168 14.96H145.368V18.248H150.144ZM169.611 14.96H165.891L162.363 23.792L164.235 23.816L160.659 14.96H156.675L161.451 25.112L158.763 31.28H162.411L169.611 14.96ZM181.714 17.6C181.714 16.608 181.906 15.736 182.29 14.984C182.69 14.216 183.242 13.616 183.946 13.184C184.666 12.752 185.506 12.536 186.466 12.536C187.442 12.536 188.282 12.752 188.986 13.184C189.69 13.616 190.234 14.216 190.618 14.984C191.002 15.736 191.194 16.608 191.194 17.6C191.194 18.592 190.994 19.472 190.594 20.24C190.21 20.992 189.658 21.584 188.938 22.016C188.234 22.448 187.41 22.664 186.466 22.664C185.506 22.664 184.666 22.448 183.946 22.016C183.242 21.584 182.69 20.992 182.29 20.24C181.906 19.472 181.714 18.592 181.714 17.6ZM177.418 17.6C177.418 18.896 177.634 20.088 178.066 21.176C178.514 22.264 179.138 23.208 179.938 24.008C180.754 24.808 181.714 25.432 182.818 25.88C183.922 26.312 185.138 26.528 186.466 26.528C187.778 26.528 188.986 26.312 190.09 25.88C191.194 25.432 192.146 24.808 192.946 24.008C193.762 23.208 194.386 22.264 194.818 21.176C195.266 20.088 195.49 18.896 195.49 17.6C195.49 16.304 195.266 15.12 194.818 14.048C194.37 12.976 193.738 12.048 192.922 11.264C192.106 10.48 191.146 9.88 190.042 9.464C188.954 9.032 187.762 8.816 186.466 8.816C185.186 8.816 183.994 9.032 182.89 9.464C181.786 9.88 180.826 10.48 180.01 11.264C179.194 12.048 178.554 12.976 178.09 14.048C177.642 15.12 177.418 16.304 177.418 17.6ZM201.305 14.96H197.729V26H201.305V14.96ZM204.497 18.704L206.057 15.608C205.865 15.32 205.585 15.096 205.217 14.936C204.849 14.776 204.465 14.696 204.065 14.696C203.457 14.696 202.873 14.896 202.312 15.296C201.753 15.696 201.297 16.24 200.945 16.928C200.609 17.616 200.441 18.4 200.441 19.28L201.305 20.552C201.305 20.024 201.377 19.576 201.521 19.208C201.665 18.84 201.873 18.56 202.145 18.368C202.417 18.176 202.729 18.08 203.081 18.08C203.401 18.08 203.665 18.136 203.873 18.248C204.097 18.36 204.305 18.512 204.497 18.704ZM210.404 22.544C210.404 22.272 210.468 22.048 210.596 21.872C210.724 21.68 210.916 21.536 211.172 21.44C211.428 21.344 211.772 21.296 212.204 21.296C212.764 21.296 213.292 21.376 213.788 21.536C214.3 21.68 214.748 21.896 215.132 22.184V20.576C214.94 20.368 214.652 20.168 214.268 19.976C213.884 19.784 213.42 19.624 212.876 19.496C212.348 19.368 211.748 19.304 211.076 19.304C209.7 19.304 208.636 19.616 207.884 20.24C207.132 20.848 206.756 21.68 206.756 22.736C206.756 23.488 206.932 24.128 207.284 24.656C207.652 25.184 208.132 25.584 208.724 25.856C209.332 26.112 209.988 26.24 210.692 26.24C211.396 26.24 212.052 26.12 212.66 25.88C213.268 25.624 213.764 25.256 214.148 24.776C214.532 24.28 214.724 23.68 214.724 22.976L214.34 21.536C214.34 22.048 214.228 22.48 214.004 22.832C213.78 23.184 213.492 23.448 213.14 23.624C212.788 23.8 212.404 23.888 211.988 23.888C211.7 23.888 211.436 23.84 211.196 23.744C210.956 23.632 210.764 23.48 210.62 23.288C210.476 23.08 210.404 22.832 210.404 22.544ZM208.796 18.344C208.956 18.248 209.212 18.128 209.564 17.984C209.916 17.824 210.324 17.688 210.788 17.576C211.268 17.464 211.756 17.408 212.252 17.408C212.588 17.408 212.884 17.44 213.14 17.504C213.412 17.568 213.636 17.672 213.812 17.816C213.988 17.96 214.116 18.136 214.196 18.344C214.292 18.536 214.34 18.768 214.34 19.04V26H217.82V18.224C217.82 17.456 217.596 16.808 217.148 16.28C216.7 15.752 216.092 15.352 215.324 15.08C214.556 14.792 213.684 14.648 212.708 14.648C211.668 14.648 210.708 14.784 209.828 15.056C208.948 15.328 208.196 15.616 207.572 15.92L208.796 18.344ZM227.709 19.28V26H231.477V18.896C231.477 17.568 231.165 16.536 230.541 15.8C229.917 15.064 228.917 14.696 227.541 14.696C226.725 14.696 226.037 14.864 225.477 15.2C224.933 15.536 224.501 16.008 224.181 16.616V14.96H220.533V26H224.181V19.28C224.181 18.848 224.261 18.48 224.421 18.176C224.581 17.872 224.805 17.64 225.093 17.48C225.381 17.32 225.717 17.24 226.101 17.24C226.677 17.24 227.085 17.416 227.325 17.768C227.581 18.12 227.709 18.624 227.709 19.28ZM233.93 26.792C234.01 27.768 234.274 28.624 234.722 29.36C235.17 30.112 235.834 30.696 236.714 31.112C237.61 31.528 238.738 31.736 240.098 31.736C241.234 31.736 242.258 31.528 243.17 31.112C244.082 30.712 244.81 30.072 245.354 29.192C245.914 28.312 246.194 27.168 246.194 25.76V14.96H242.714V25.76C242.714 26.432 242.586 26.992 242.33 27.44C242.09 27.904 241.762 28.248 241.346 28.472C240.93 28.712 240.466 28.832 239.954 28.832C239.49 28.832 239.074 28.752 238.706 28.592C238.338 28.448 238.042 28.224 237.818 27.92C237.61 27.616 237.482 27.24 237.434 26.792H233.93ZM233.69 20.336C233.69 21.568 233.938 22.6 234.434 23.432C234.946 24.264 235.602 24.896 236.402 25.328C237.202 25.744 238.05 25.952 238.946 25.952C239.874 25.952 240.69 25.736 241.394 25.304C242.114 24.856 242.682 24.216 243.098 23.384C243.514 22.536 243.722 21.52 243.722 20.336C243.722 19.136 243.514 18.12 243.098 17.288C242.682 16.456 242.114 15.824 241.394 15.392C240.69 14.944 239.874 14.72 238.946 14.72C238.05 14.72 237.202 14.928 236.402 15.344C235.602 15.76 234.946 16.384 234.434 17.216C233.938 18.048 233.69 19.088 233.69 20.336ZM237.506 20.336C237.506 19.76 237.626 19.272 237.866 18.872C238.106 18.472 238.426 18.168 238.826 17.96C239.226 17.752 239.666 17.648 240.146 17.648C240.45 17.648 240.754 17.704 241.058 17.816C241.362 17.928 241.634 18.096 241.874 18.32C242.13 18.544 242.33 18.824 242.474 19.16C242.634 19.496 242.714 19.888 242.714 20.336C242.714 20.928 242.586 21.424 242.33 21.824C242.074 22.224 241.746 22.528 241.346 22.736C240.962 22.928 240.562 23.024 240.146 23.024C239.666 23.024 239.226 22.92 238.826 22.712C238.426 22.504 238.106 22.2 237.866 21.8C237.626 21.384 237.506 20.896 237.506 20.336ZM254.602 26.24C256.01 26.24 257.202 25.968 258.178 25.424C259.17 24.88 259.954 24.064 260.53 22.976L257.29 22.184C257.018 22.664 256.65 23.024 256.186 23.264C255.738 23.504 255.194 23.624 254.554 23.624C253.994 23.624 253.522 23.504 253.138 23.264C252.754 23.008 252.466 22.64 252.274 22.16C252.082 21.68 251.986 21.104 251.986 20.432C252.002 19.696 252.098 19.088 252.274 18.608C252.466 18.112 252.746 17.744 253.114 17.504C253.482 17.264 253.938 17.144 254.482 17.144C254.914 17.144 255.29 17.24 255.61 17.432C255.93 17.624 256.178 17.896 256.354 18.248C256.53 18.6 256.618 19.016 256.618 19.496C256.618 19.608 256.586 19.752 256.522 19.928C256.474 20.088 256.41 20.224 256.33 20.336L257.194 19.232H250.378V21.248H260.458C260.49 21.136 260.506 21 260.506 20.84C260.506 20.664 260.506 20.488 260.506 20.312C260.506 19.128 260.274 18.12 259.81 17.288C259.346 16.456 258.674 15.824 257.794 15.392C256.914 14.944 255.834 14.72 254.554 14.72C253.274 14.72 252.162 14.952 251.218 15.416C250.29 15.88 249.578 16.544 249.082 17.408C248.586 18.272 248.338 19.296 248.338 20.48C248.338 21.648 248.594 22.664 249.106 23.528C249.618 24.392 250.338 25.064 251.266 25.544C252.21 26.008 253.322 26.24 254.602 26.24ZM263.344 21.992L261.832 24.392C262.328 24.776 262.864 25.128 263.44 25.448C264.016 25.752 264.64 25.992 265.312 26.168C266 26.36 266.744 26.456 267.544 26.456C268.856 26.456 269.872 26.16 270.592 25.568C271.328 24.96 271.696 24.064 271.696 22.88C271.696 22.192 271.544 21.64 271.24 21.224C270.952 20.808 270.56 20.464 270.064 20.192C269.584 19.92 269.056 19.68 268.48 19.472C267.936 19.264 267.472 19.096 267.088 18.968C266.72 18.824 266.432 18.672 266.224 18.512C266.032 18.352 265.936 18.152 265.936 17.912C265.936 17.704 266.016 17.536 266.176 17.408C266.352 17.28 266.608 17.216 266.944 17.216C267.44 17.216 267.984 17.36 268.576 17.648C269.168 17.92 269.696 18.272 270.16 18.704L271.456 16.352C271.024 16.032 270.56 15.752 270.064 15.512C269.584 15.272 269.064 15.08 268.504 14.936C267.96 14.792 267.368 14.72 266.728 14.72C265.928 14.72 265.216 14.84 264.592 15.08C263.984 15.32 263.496 15.672 263.128 16.136C262.776 16.6 262.6 17.168 262.6 17.84C262.6 18.544 262.752 19.12 263.056 19.568C263.36 20.016 263.744 20.376 264.208 20.648C264.688 20.904 265.192 21.128 265.72 21.32C266.312 21.496 266.776 21.664 267.112 21.824C267.464 21.984 267.712 22.152 267.856 22.328C268 22.488 268.072 22.688 268.072 22.928C268.072 23.184 267.984 23.392 267.808 23.552C267.632 23.712 267.36 23.792 266.992 23.792C266.736 23.792 266.432 23.744 266.08 23.648C265.728 23.536 265.32 23.352 264.856 23.096C264.408 22.824 263.904 22.456 263.344 21.992Z" fill="white"/>
<path d="M201.75 2.63158C195.9 3.68421 194.535 6.93158 193.183 9.65263L194.411 10L195.029 8.78947C195.341 8.87895 195.666 8.94737 195.9 8.94737C203.05 8.94737 205 0 205 0C204.35 1.05263 199.8 1.18421 196.55 1.71053C193.3 2.23684 192 4.47368 192 5.52632C192 6.57895 193.137 7.5 193.137 7.5C195.25 2.63158 201.75 2.63158 201.75 2.63158Z" fill="#1DB010"/>
</svg>
